<svg width="544" height="544" viewBox="0 0 544 544" fill="none" xmlns="http://www.w3.org/2000/svg">
<rect width="544" height="544" fill="#1B72FF"/>
<path d="M65 181.735C65 164.867 73.7256 148 99.8045 148C125.883 148 134.413 164.77 134.413 177.857C134.413 189.878 128.825 197.73 120.393 201.413H136.668V214.112H99.8045C73.7256 214.112 65 198.893 65 181.735ZM83.0395 181.056C83.0395 192.689 86.0788 200.153 99.8045 200.153C113.726 200.153 116.668 192.689 116.668 181.056C116.668 169.23 113.726 161.959 99.8045 161.959C86.0788 161.959 83.0395 169.23 83.0395 181.056Z" fill="white"/>
<path d="M143.46 214.112V200.638H154.93V163.122H143.46V149.648H183.656V163.122H172.186V200.638H183.656V214.112H143.46Z" fill="white"/>
<path d="M223.117 215.663C197.921 215.663 188.509 199.668 188.509 181.929C188.509 164.673 198.019 148 223.215 148C246.549 148 255.765 157.209 257.137 175.724H239.392C238.607 167 234.882 161.959 223.509 161.959C211.646 161.959 206.548 168.648 206.548 181.929C206.548 195.015 211.254 201.801 223.019 201.801C234.686 201.801 238.902 196.954 239.588 187.551H257.529C255.961 207.327 247.039 215.663 223.117 215.663Z" fill="white"/>
<path d="M67.5491 303.781V239.316H100.491C121.668 239.316 131.374 254.633 131.374 271.403C131.374 288.173 121.668 303.781 100.491 303.781H67.5491ZM84.8043 290.306H96.5692C108.432 290.306 113.334 283.811 113.334 271.403C113.334 258.801 108.334 252.791 96.5692 252.791H84.8043V290.306Z" fill="white"/>
<path d="M136.375 303.781V290.306H147.845V252.791H136.375V239.316H176.571V252.791H165.101V290.306H176.571V303.781H136.375Z" fill="white"/>
<path d="M212.208 305.332C190.934 305.332 181.424 289.918 181.424 271.597C181.424 252.888 191.914 237.668 217.307 237.668C239.856 237.668 248.68 248.041 249.562 260.643H232.307C231.523 255.02 226.719 250.852 217.405 250.852C205.738 250.852 199.463 257.056 199.463 271.597C199.463 285.265 204.659 292.148 216.326 292.148C228.091 292.148 232.013 286.429 233.091 279.158H212.012V268.398H249.464V303.781H235.052V291.954C232.503 298.837 226.522 305.332 212.208 305.332Z" fill="white"/>
<path d="M257.873 303.781V290.306H269.343V252.791H257.873V239.316H298.069V252.791H286.599V290.306H298.069V303.781H257.873Z" fill="white"/>
<path d="M324.627 303.781V252.791H303.646V239.316H362.863V252.791H341.882V303.781H324.627Z" fill="white"/>
<path d="M426.602 303.781H409.249L405.033 291.663H377.092L372.778 303.781H355.523L377.778 239.316H404.347L426.602 303.781ZM381.504 278.77H400.622L391.014 251.337L381.504 278.77Z" fill="white"/>
<path d="M432.234 303.781V239.316H449.686V290.306H479V303.781H432.234Z" fill="white"/>
<path d="M67.5491 393.449V328.985H84.8043V354.092H112.06V328.985H129.315V393.449H112.06V367.372H84.8043V393.449H67.5491Z" fill="white"/>
<path d="M139.147 368.923V328.985H156.5V366.694C156.5 377.939 160.617 381.041 169.539 381.041C178.461 381.041 182.579 377.939 182.579 366.694V328.985H199.834V368.923C199.834 386.082 189.638 395 169.539 395C149.441 395 139.147 386.179 139.147 368.923Z" fill="white"/>
<path d="M209.632 393.449V328.985H247.672C261.593 328.985 267.378 336.158 267.378 344.883C267.378 354.383 261.594 358.551 253.75 360.199C261.986 361.653 268.358 365.337 268.358 375.903C268.358 386.954 260.907 393.449 246.985 393.449H209.632ZM226.887 380.653H242.574C248.456 380.653 250.319 377.648 250.319 373.48C250.319 369.311 248.26 366.209 242.083 366.209H226.887V380.653ZM226.887 355.061H242.083C247.672 355.061 249.338 352.153 249.338 348.372C249.338 344.204 247.28 341.781 242.181 341.781H226.887V355.061Z" fill="white"/>
</svg>
